<?xml version="1.0" encoding="iso-8859-1"?>
<!-- Generator: Adobe Illustrator 19.0.0, SVG Export Plug-In . SVG Version: 6.00 Build 0)  -->
<svg version="1.1" id="Capa_1" xmlns="http://www.w3.org/2000/svg" xmlns:xlink="http://www.w3.org/1999/xlink" x="0px" y="0px"
	 viewBox="0 0 512 512" style="enable-background:new 0 0 512 512;" xml:space="preserve">
<g>
	<g>
		<path d="M497.231,211.692c8.157,0,14.769-6.613,14.769-14.769v-78.769c0-8.157-6.613-14.769-14.769-14.769H172.308v73.846
			c0,8.157-6.613,14.769-14.769,14.769s-14.769-6.613-14.769-14.769v-73.846h-128C6.613,103.385,0,109.997,0,118.154v78.769
			c0,8.157,6.613,14.769,14.769,14.769c24.431,0,44.308,19.876,44.308,44.308s-19.876,44.308-44.308,44.308
			C6.613,300.308,0,306.92,0,315.077v78.769c0,8.157,6.613,14.769,14.769,14.769h128v-73.846c0-8.157,6.613-14.769,14.769-14.769
			s14.769,6.613,14.769,14.769v73.846h324.923c8.157,0,14.769-6.613,14.769-14.769v-78.769c0-8.157-6.613-14.769-14.769-14.769
			c-24.431,0-44.308-19.876-44.308-44.308S472.799,211.692,497.231,211.692z M172.308,275.692c0,8.157-6.613,14.769-14.769,14.769
			s-14.769-6.613-14.769-14.769v-39.385c0-8.157,6.613-14.769,14.769-14.769s14.769,6.613,14.769,14.769V275.692z"/>
	</g>
</g>
<g>
</g>
<g>
</g>
<g>
</g>
<g>
</g>
<g>
</g>
<g>
</g>
<g>
</g>
<g>
</g>
<g>
</g>
<g>
</g>
<g>
</g>
<g>
</g>
<g>
</g>
<g>
</g>
<g>
</g>
</svg>
