<?xml version="1.0" standalone="no"?><!DOCTYPE svg PUBLIC "-//W3C//DTD SVG 1.1//EN" "http://www.w3.org/Graphics/SVG/1.1/DTD/svg11.dtd"><svg t="1601433187540" class="icon" viewBox="0 0 1024 1024" version="1.1" xmlns="http://www.w3.org/2000/svg" p-id="1194" xmlns:xlink="http://www.w3.org/1999/xlink" width="200" height="200"><defs><style type="text/css"></style></defs><path d="M783.26123046875 340.18349609375C761.61376953125 470.35830078125 648.2287109375 569.9216796875 512.0087890625 569.9216796875c-136.22519531249998 0-249.60498046875-99.5642578125-271.248046875-229.7373046875-16.98486328125-7.990136718749999-28.75166015625-25.243945312500003-28.75166015625-45.25927734375 0-27.6169921875 22.384863281250002-50.00185546875 49.9974609375-50.00185546875s49.9974609375 22.384863281250002 49.9974609375 50.00185546875c0 16.913671875-8.40673828125 31.854199218749997-21.2607421875 40.9025390625C310.0361328125 440.4376953125 401.90380859375 519.92421875 512.0052734375 519.92421875c110.105859375 0 201.9814453125-79.4865234375 221.2646484375-184.09658203125-12.85400390625-9.04833984375-21.26513671875-23.984472656250002-21.26513671875-40.9025390625 0-27.61259765625 22.39453125-50.00185546875 50.002734375-50.00185546875 27.61259765625 0 49.9921875 22.389257812500002 49.9921875 50.00185546875 0 20.015332031249997-11.75185546875 37.269140625000006-28.737597656250003 45.2583984375M862.0068359375 62H162.00634765625c-0.023730468749999997 0-0.04306640625 0-0.06679687499999998 0.00439453125C106.81982421875 62.03251953124999 62.006152343750045 106.86464843749997 62.006152343750045 161.99404296875002v700.0048828125C62.006152343750045 917.14765625 106.85322265625001 962 162.00634765625 962h699.99609375c55.157519531249996 0 99.99931640625-44.8505859375 99.99931640625-100.00019531250001v-700.0048828125C962.010546875 106.84179687499994 917.1599609375 62 862.0068359375 62" p-id="1195"></path></svg>