<?xml version="1.0" standalone="no"?><!DOCTYPE svg PUBLIC "-//W3C//DTD SVG 1.1//EN" "http://www.w3.org/Graphics/SVG/1.1/DTD/svg11.dtd"><svg t="1605064643108" class="icon" viewBox="0 0 1153 1024" version="1.1" xmlns="http://www.w3.org/2000/svg" p-id="2837" xmlns:xlink="http://www.w3.org/1999/xlink" width="225.1953125" height="200"><defs><style type="text/css"></style></defs><path d="M1007.995905 646.401534a155.519368 155.519368 0 0 1-144.639412-95.99961 155.19937 155.19937 0 0 1-287.99883 0 155.839367 155.839367 0 0 1-287.99883 0 155.519368 155.519368 0 0 1-144.639413 95.99961 157.43936 157.43936 0 0 1-43.199824-6.399974v318.078708a73.599701 73.599701 0 0 0 63.99974 65.919732h826.236643a73.599701 73.599701 0 0 0 63.99974-65.919732V640.00156a157.43936 157.43936 0 0 1-44.479819 6.399974z" p-id="2838"></path><path d="M1049.915735 142.403581H98.879598L0 400.642532a142.71942 142.71942 0 0 0 143.039419 141.439426A143.359418 143.359418 0 0 0 287.99883 400.642532a143.999415 143.999415 0 0 0 287.99883 0 143.359418 143.359418 0 0 0 287.99883 0 144.959411 144.959411 0 0 0 289.598824 0zM1003.835922 140.803588h3.199987zM164.479332 98.56376h823.036656a48.319804 48.319804 0 0 0 49.2798-49.2798A48.639802 48.639802 0 0 0 987.515988 0.00416H164.479332A48.639802 48.639802 0 0 0 115.199532 49.28396a48.319804 48.319804 0 0 0 49.2798 49.2798z" p-id="2839"></path></svg>